<svg viewBox="0 0 27 27" xmlns="http://www.w3.org/2000/svg"><path d="m7.623 7.8c-.976 0-1.773.69-1.773 1.535v7.98c0 .845.797 1.535 1.773 1.535h12.054c.976 0 1.773-.69 1.773-1.535v-7.98c0-.845-.797-1.535-1.773-1.535zm0 .614h12.054c.596 0 1.064.405 1.064.92v.028l-7.091 6.138-7.09-6.138v-.027c0-.516.467-.92 1.063-.92zm-1.064 1.816 3.653 3.162-3.653 3.163zm14.183 0v6.217l-3.59-3.108zm-4.092 3.543 4.092 3.542c0 .516-.468.921-1.064.921h-12.054c-.556 0-1-.353-1.057-.819l4.147-3.59 2.686 2.323c.138.12.363.12.501 0l2.749-2.38v.002z" fill="#ee4c77" fill-rule="evenodd" stroke="#ee4c77" stroke-width=".65"/></svg>