<svg enable-background="new 0 0 16.25 11.6999998" viewBox="0 0 16.25 11.6999998" xmlns="http://www.w3.org/2000/svg"><path clip-rule="evenodd" d="m2.0979998.325c-.9759998 0-1.7729998.6899996-1.7729998 1.5349999v7.9800005c0 .8449991.797 1.5349996 1.7729998 1.5349996h12.0539999c.9759998 0 1.7730007-.6900005 1.7730007-1.5349998v-7.9799994c0-.8450003-.7970009-1.5349998-1.7730007-1.5349998zm0 .6140003h12.0539999c.5960007 0 1.0639992.4049998 1.0639992.9200001v.0279999l-7.0909999 6.1379993-7.0899999-6.1380002v-.0270005c0-.5159998.467-.9200001 1.0629997-.9200001zm-1.0640001 1.8160001 3.6529996 3.1619995-3.6529996 3.163zm14.1830003 0v6.217l-3.5900002-3.1079998zm-4.091999 3.5429999 4.091999 3.5419999c0 .5160007-.4680004.9209995-1.0639992.9209995h-12.0539996c-.5559998 0-1-.3530006-1.0570002-.8190002l4.1469994-3.5900002 2.6859999 2.323c.1379995.1200008.3629999.1200008.5010004 0l2.7490005-2.3800001v.0019998.0010013z" fill="#ee4c77" fill-rule="evenodd" stroke="#ee4c77" stroke-width=".65"/></svg>