<svg enable-background="new 0 0 15.4330006 18.6460018" viewBox="0 0 15.4330006 18.6460018" xmlns="http://www.w3.org/2000/svg"><g clip-rule="evenodd" fill="#ee4c77" fill-rule="evenodd"><path d="m13.8209991 6.2740002h-9.4710001v-2.8500002c0-1.0370002.8400002-1.8769999 1.8760004-1.8769999h3.2680001c1.0369987 0 1.8759995.8400002 1.8759995 1.8769999v.177c0 .4199998.3530006.7739999.7730007.7739999s.7730007-.3540001.7730007-.7739999v-.177c-.008749-1.8866076-1.5353985-3.4141483-3.4220009-3.424h-3.2679992c-1.8862114.0103977-3.4122562 1.5377796-3.4210005 3.424v2.8720005h-1.1919999c-.8839998 0-1.6129999.7300005-1.6129999 1.6129999v9.1230011c0 .8840008.73 1.6140003 1.6129999 1.6140003h12.2080011c.8829994 0 1.6119995-.7299995 1.6119995-1.6140003v-9.1230001c.0000001-.9049998-.7299995-1.6350003-1.6120014-1.6350012zm.066 10.7569999c0 .0440006-.0440006.0669994-.066.0669994h-12.1860003c-.0430002 0-.066-.0440006-.066-.0669994v-9.1219997c0-.0439997.0440001-.0670004.066-.0670004h12.2080021c.0440006 0 .0669994.0439997.0669994.0670004v9.1219997z"/><path d="m9.4719982 13.2199993c.0003948.9637375-.7805481 1.7453194-1.7442851 1.7457142-.9637375.0003929-1.7453203-.78055-1.7457142-1.7442856 0-.0004768 0-.0009518 0-.0014286.0003939-.9637365.7819767-1.7446804 1.7457142-1.7442856.9631782.0003939 1.7438922.781106 1.7442851 1.7442856"/></g></svg>